<?xml version="1.0" encoding="utf-8"?>
<!-- Generator: Adobe Illustrator 24.0.1, SVG Export Plug-In . SVG Version: 6.00 Build 0)  -->
<svg version="1.1" id="Layer_1" xmlns="http://www.w3.org/2000/svg" xmlns:xlink="http://www.w3.org/1999/xlink" x="0px" y="0px"
	 viewBox="0 0 486.72 97.89" style="enable-background:new 0 0 486.72 97.89;" xml:space="preserve">
<style type="text/css">
	.st0{fill:#6BC2DD;}
	.st1{fill:#142A43;}
</style>
<g>
	<g>
		<path class="st0" d="M55.86,45.15h-8.27h-0.02c-0.59-0.24-1.04-1.28-1.04-1.28l-6.63,0.01c0,0-0.59,0.92-2.31,0.92
			s-3.25-0.43-3.84-0.43c-0.59,0-1.35,0.94-1.35,1.53v0.06c0,0.59,0.76,1.54,1.35,1.54c0.59,0,2.13-0.32,3.84-0.32
			c1.72,0,2.3,1.04,2.3,1.04h0.13h6.51c0,0,0.36-0.95,1.07-1.18h8.22C55.57,46.34,55.59,45.63,55.86,45.15z"/>
		<path class="st0" d="M82.37,44.38c-0.59,0-2.18,0.41-3.9,0.41c-1.72,0-2.32-0.95-2.32-0.95l-6.64,0.03c0,0-0.46,1.04-1.05,1.28
			h-0.02h-8.22c0.27,0.47,0.29,1.18,0.04,1.9h8.29c0.59,0.24,0.95,1.18,0.95,1.18h6.51h0.13c0,0,0.6-1.04,2.32-1.04
			c1.72,0,3.31,0.37,3.9,0.37c0.59,0,1.43-0.99,1.43-1.59v-0.06C83.8,45.32,82.96,44.38,82.37,44.38z"/>
		<path class="st0" d="M51.32,53.98l5.76-5.76c-0.27-0.12-0.52-0.28-0.74-0.5c-0.26-0.26-0.44-0.56-0.56-0.89l-5.8,5.8l-0.02,0.02
			c-0.57,0.27-1.58-0.1-1.58-0.1l-4.65,4.73c0,0,0.25,1.09-0.96,2.3c-1.21,1.21-2.62,2.03-3.04,2.45c-0.42,0.42-0.31,1.65,0.1,2.07
			l0.04,0.04c0.42,0.42,1.65,0.52,2.07,0.1c0.42-0.42,1.22-1.81,2.44-3.03c1.21-1.21,2.31-0.97,2.31-0.97l0.09-0.09l4.61-4.61
			C51.41,55.57,50.97,54.63,51.32,53.98z"/>
		<path class="st0" d="M76.24,27.81l-0.04-0.04c-0.42-0.42-1.65-0.52-2.07-0.1c-0.42,0.42-1.24,1.82-2.45,3.04
			c-1.21,1.21-2.3,0.96-2.3,0.96l-4.73,4.65c0,0,0.37,1.01,0.1,1.58l-0.02,0.02l-5.87,5.87c0.32,0.12,0.63,0.3,0.89,0.56
			c0.22,0.22,0.38,0.47,0.5,0.74l5.91-5.91c0.57-0.27,1.51,0.17,1.51,0.17l4.61-4.61l0.09-0.09c0,0-0.25-1.09,0.97-2.31
			c1.21-1.21,2.61-2.02,3.03-2.44C76.76,29.46,76.66,28.23,76.24,27.81z"/>
		<path class="st0" d="M56.35,44.33c0.25-0.25,0.54-0.43,0.85-0.55l-5.92-5.92l-0.02-0.02c-0.27-0.57,0.1-1.58,0.1-1.58l-4.73-4.65
			c0,0-1.09,0.25-2.3-0.96c-1.21-1.21-2.03-2.62-2.45-3.04c-0.42-0.42-1.65-0.31-2.07,0.1l-0.04,0.04c-0.42,0.42-0.52,1.65-0.1,2.07
			c0.42,0.42,1.81,1.22,3.03,2.44c1.21,1.21,0.97,2.31,0.97,2.31l0.09,0.09l4.61,4.61c0,0,0.94-0.44,1.59-0.08l5.9,5.9
			C55.95,44.81,56.12,44.55,56.35,44.33z"/>
		<path class="st0" d="M76.25,62c-0.42-0.42-1.82-1.24-3.04-2.45c-1.21-1.21-0.96-2.3-0.96-2.3l-4.65-4.73c0,0-1.01,0.37-1.58,0.1
			l-0.02-0.02l-5.73-5.73c-0.12,0.31-0.3,0.6-0.55,0.85c-0.23,0.23-0.49,0.4-0.77,0.51l5.79,5.79c0.27,0.57-0.17,1.51-0.17,1.51
			l4.61,4.61l0.09,0.09c0,0,1.09-0.25,2.31,0.97c1.21,1.21,2.02,2.61,2.44,3.03c0.42,0.42,1.65,0.31,2.07-0.1l0.04-0.04
			C76.57,63.65,76.67,62.42,76.25,62z"/>
		<path class="st0" d="M58.93,56.3v-0.02v-8.02c-0.47,0.24-1.18,0.21-1.9-0.07v8.21c0,0.59-1.18,0.95-1.18,0.95v6.51v0.13
			c0,0,0.94,0.6,0.94,2.32s-0.42,3.33-0.42,3.93c0,0.59,0.94,1.45,1.53,1.45h0.06c0.59,0,1.54-0.86,1.54-1.45
			c0-0.59-0.37-2.19-0.37-3.91s0.99-2.33,0.99-2.33v-6.64C60.11,57.35,59.16,56.89,58.93,56.3z"/>
		<path class="st0" d="M57.03,35.43v8.43c0.71-0.28,1.42-0.31,1.9-0.07v-8.35v-0.02c0.24-0.59,1.17-1.04,1.17-1.04l-0.06-6.63
			c0,0-0.95-0.59-0.95-2.31c0-1.72,0.41-3.22,0.41-3.82c0-0.59-0.95-1.33-1.54-1.33H57.9c-0.59,0-1.54,0.74-1.54,1.33
			c0,0.59,0.42,2.12,0.42,3.83c0,1.72-0.94,2.29-0.94,2.29v0.13v6.51C55.85,34.37,57.03,34.72,57.03,35.43z"/>
		<path class="st1" d="M60.98,43.08c-1.62-1.62-4.25-1.62-5.88,0c-1.62,1.62-1.62,4.26,0,5.88c1.62,1.62,4.26,1.62,5.88,0
			C62.61,47.34,62.61,44.71,60.98,43.08z M59.74,47.72c-0.94,0.94-2.46,0.94-3.4,0c-0.94-0.94-0.94-2.46,0-3.39
			c0.94-0.94,2.46-0.94,3.4,0S60.68,46.78,59.74,47.72z"/>
		<path class="st1" d="M58.02,28.67c-9.52,0-17.23,7.72-17.23,17.23c0,9.52,7.72,17.23,17.23,17.23c9.52,0,17.23-7.72,17.23-17.23
			C75.25,36.39,67.54,28.67,58.02,28.67z M66.71,54.57c-4.79,4.79-12.55,4.79-17.34,0c-4.79-4.79-4.79-12.55,0-17.34
			c4.79-4.79,12.55-4.79,17.34,0C71.5,42.02,71.5,49.79,66.71,54.57z"/>
		<path class="st1" d="M43.67,34.61l0.06,0.06l0.11,0.11c0.87-1.11,1.87-2.11,2.97-2.98l-0.17-0.17
			C45.54,32.51,44.55,33.51,43.67,34.61z"/>
		<path class="st1" d="M39.99,45.91c0-0.68,0.04-1.36,0.12-2.02l-0.21,0c0,0-0.01,0.02-0.04,0.05c-0.07,0.65-0.11,1.31-0.11,1.97
			c0,0.79,0.06,1.61,0.15,2.32h0.11h0.13C40.04,47.52,39.99,46.7,39.99,45.91z"/>
		<path class="st1" d="M43.91,57.12l-0.17,0.17c0.88,1.1,1.88,2.09,2.98,2.96l0.07-0.07l0.1-0.1
			C45.79,59.21,44.79,58.22,43.91,57.12z"/>
		<path class="st1" d="M60.11,63.99v-0.16c-0.71,0.07-1.29,0.11-1.95,0.11c-0.78,0-1.6-0.06-2.31-0.15v0.08v0.13
			c0,0-0.04,0.02,0,0.05c0.74,0.09,1.45,0.14,2.21,0.14c0.62,0,1.29-0.03,1.9-0.09C60.02,64.02,60.11,63.99,60.11,63.99z"/>
		<path class="st1" d="M72.24,57.35c0.01-0.07,0.01-0.1,0.01-0.1l-0.13-0.13c-0.88,1.1-1.88,2.1-2.98,2.97l0.06,0.06l0.09,0.09
			c0,0,0.02-0.01,0.07-0.01C70.42,59.37,71.39,58.41,72.24,57.35z"/>
		<path class="st1" d="M76.17,43.9c-0.03-0.03-0.04-0.06-0.04-0.06l-0.2,0c0.08,0.68,0.12,1.37,0.12,2.07
			c0,0.79-0.06,1.61-0.15,2.32h0.13h0.11c0.1-0.71,0.15-1.54,0.15-2.32C76.29,45.23,76.25,44.56,76.17,43.9z"/>
		<path class="st1" d="M69.45,31.67c-0.05-0.01-0.08-0.01-0.08-0.01l-0.14,0.14c1.1,0.88,2.1,1.88,2.96,2.98l0.07-0.07l0.09-0.09
			c0,0,0-0.01-0.01-0.04C71.49,33.51,70.52,32.53,69.45,31.67z"/>
		<path class="st1" d="M55.85,27.79v0.06v0.17c0.71-0.1,1.46-0.15,2.24-0.15c0.67,0,1.3,0.04,1.95,0.11l-0.02-0.24
			c-0.65-0.07-1.25-0.11-1.92-0.11C57.31,27.64,56.56,27.69,55.85,27.79z"/>
		<path class="st1" d="M49.99,37.86c0.39-0.39,0.79-0.74,1.22-1.06c0.03-0.14,0.06-0.26,0.09-0.36c-0.52,0.37-1.02,0.79-1.48,1.25
			c-0.47,0.47-0.9,0.98-1.27,1.51c0.1-0.03,0.22-0.07,0.36-0.1C49.24,38.67,49.6,38.25,49.99,37.86z"/>
		<path class="st1" d="M46.58,43.99c-0.1,0.63-0.16,1.27-0.16,1.92c0,0.72,0.07,1.43,0.2,2.12c0.04-0.09,0.11-0.2,0.19-0.32
			c-0.09-0.59-0.14-1.19-0.14-1.8c0-0.53,0.04-1.06,0.11-1.58C46.69,44.19,46.62,44.07,46.58,43.99z"/>
		<path class="st1" d="M51.23,55.03c-0.43-0.33-0.85-0.68-1.24-1.07c-0.4-0.4-0.76-0.82-1.09-1.26c-0.14-0.03-0.26-0.06-0.35-0.09
			c0.38,0.53,0.8,1.04,1.28,1.51c0.47,0.47,0.98,0.89,1.51,1.27C51.3,55.3,51.26,55.17,51.23,55.03z"/>
		<path class="st1" d="M60.11,57.35c0,0-0.2-0.06-0.38-0.18c-0.53,0.07-1.1,0.11-1.65,0.11c-0.62,0-1.25-0.05-1.85-0.15
			c-0.16,0.08-0.32,0.14-0.41,0.17c0.73,0.14,1.54,0.21,2.3,0.21c0.65,0,1.28-0.06,1.99-0.16V57.35z"/>
		<path class="st1" d="M67.6,52.52c-0.02,0.01-0.16,0.06-0.36,0.11c-0.34,0.47-0.72,0.91-1.14,1.33c-0.42,0.42-0.88,0.81-1.35,1.16
			c-0.05,0.18-0.11,0.33-0.14,0.39c0.59-0.4,1.14-0.86,1.66-1.38C66.76,53.62,67.21,53.08,67.6,52.52z"/>
		<path class="st1" d="M69.46,48.11c0.14-0.72,0.21-1.45,0.21-2.2c0-0.68-0.06-1.35-0.18-2.01c-0.02,0.05-0.09,0.19-0.18,0.35
			c0.08,0.54,0.12,1.1,0.12,1.66c0,0.63-0.05,1.25-0.15,1.85C69.36,47.9,69.42,48.02,69.46,48.11z"/>
		<path class="st1" d="M64.65,36.35c0.02,0.06,0.06,0.19,0.1,0.36c0.47,0.35,0.92,0.73,1.34,1.15c0.41,0.41,0.79,0.85,1.13,1.31
			c0.18,0.05,0.32,0.11,0.39,0.14c-0.4-0.57-0.84-1.11-1.35-1.62C65.76,37.19,65.22,36.74,64.65,36.35z"/>
		<path class="st1" d="M55.98,34.47c0.1,0.05,0.23,0.11,0.35,0.18c0.56-0.08,1.14-0.13,1.72-0.13c0.51,0,1.02,0.04,1.52,0.1
			c0.13-0.08,0.25-0.15,0.33-0.19c-0.61-0.1-1.23-0.15-1.85-0.15C57.34,34.28,56.65,34.35,55.98,34.47z"/>
	</g>
	<g>
		<g>
			<path class="st1" d="M88.55,26.85h11.69v1.48c-3.42,0.37-4.03,0.74-4.03,5.43v9.07c0.88-0.11,1.88-0.95,3.15-2.43
				c2.45-2.79,5.39-6.38,7.4-9.12c1.31-1.79,1.18-2.48-0.7-2.79l-1.23-0.16v-1.48h10.64v1.48c-3.28,0.47-4.42,0.74-7.36,4.38
				c-1.31,1.53-4.73,5.54-7.53,8.86c3.33,4.74,8.19,11.49,10.47,14.39c2.23,2.9,2.8,3.32,5.52,3.69v1.48h-7.01
				c-3.37-4.59-6.92-9.7-10.9-15.29c-1.01-1.48-1.75-1.58-2.45-1.53v10.02c0,4.59,0.39,4.96,4.03,5.32v1.48H88.55v-1.48
				c3.59-0.37,3.94-0.74,3.94-5.32V33.76c0-4.74-0.31-5.11-3.94-5.43V26.85z"/>
			<path class="st1" d="M131.99,26.12c7.49,0,14.19,6.91,14.19,17.4c0,11.33-6.39,18.4-14.45,18.4c-8.41,0-14.54-7.7-14.54-17.61
				C117.19,34.87,122.75,26.12,131.99,26.12z M131.12,28.07c-4.9,0-9.37,4.96-9.37,14.81c0,9.8,4.47,17.03,10.69,17.03
				c5.3,0,9.28-4.74,9.28-14.92C141.72,33.92,136.85,28.07,131.12,28.07z"/>
			<path class="st1" d="M150.08,48.68l-0.61-1.79l14.85-9.01l0.61,1.85L150.08,48.68z M172.2,52.37c-0.26,1.63-1.58,7.12-2.01,8.75
				h-20.36v-1.48c3.98-0.47,4.34-0.74,4.34-5.22V33.5c0-4.48-0.44-4.74-3.94-5.17v-1.48h11.74v1.48c-3.5,0.42-3.98,0.63-3.98,5.17
				v21.46c0,3.22,0.35,3.95,2.85,4.01c0.04,0,3.2,0.05,3.46,0.05c2.23,0,2.89-0.32,3.9-1.63c1.09-1.37,2.01-3.48,2.67-5.43
				L172.2,52.37z"/>
			<path class="st1" d="M189.94,26.12c7.49,0,14.19,6.91,14.19,17.4c0,11.33-6.39,18.4-14.45,18.4c-8.41,0-14.54-7.7-14.54-17.61
				C175.13,34.87,180.7,26.12,189.94,26.12z M189.06,28.07c-4.9,0-9.37,4.96-9.37,14.81c0,9.8,4.47,17.03,10.69,17.03
				c5.3,0,9.28-4.74,9.28-14.92C199.66,33.92,194.8,28.07,189.06,28.07z"/>
			<path class="st1" d="M223.13,42.56c4.2,0.84,7.62,3.27,7.62,8.38c0,3.58-1.66,6.43-4.25,8.12c-2.28,1.53-4.51,2.06-7.58,2.06
				h-10.77v-1.48c3.72-0.42,3.94-0.9,3.94-5.06V33.44c0-4.38-0.39-4.74-3.94-5.11v-1.48h11.47c3.28,0,5.34,0.69,6.74,1.85
				c1.53,1.27,2.58,3.22,2.58,5.9C228.96,39.56,225.58,41.83,223.13,42.56z M218.1,41.93c4.82,0,6.79-2.32,6.79-6.64
				c0-3.69-1.88-6.54-6.09-6.54c-1.23,0-2.01,0.16-2.45,0.53c-0.35,0.32-0.48,0.9-0.48,2.58v10.07H218.1z M215.86,54.48
				c0,3.8,0.74,4.75,3.85,4.75c3.42,0,6.74-2.21,6.74-7.75c0-5.38-3.15-7.7-8.5-7.7h-2.1V54.48z"/>
			<path class="st1" d="M260.31,61.54c-0.57,0-1.05-0.05-1.62-0.11c-3.2-0.26-4.9-1.27-6.83-4.53c-1.62-2.69-3.2-6.01-4.6-8.7
				c-0.88-1.69-1.45-2-3.68-2h-1.53v8.28c0,4.48,0.48,4.75,3.99,5.17v1.48h-11.69v-1.48c3.63-0.47,3.94-0.68,3.94-5.17V33.44
				c0-4.48-0.48-4.64-3.94-5.11v-1.48h11.17c3.2,0,5.34,0.47,7.01,1.79c1.8,1.37,2.98,3.74,2.98,6.96c0,4.53-2.41,7.38-5.65,9.07
				c0.79,1.63,2.67,5.17,3.99,7.54c1.62,2.79,2.45,4.11,3.46,5.43c1.18,1.53,2.19,2.11,3.2,2.42L260.31,61.54z M244.15,44.41
				c2.28,0,3.72-0.42,4.82-1.53c1.71-1.53,2.41-3.64,2.41-6.48c0-5.64-3.11-7.7-6.48-7.7c-1.27,0-2.01,0.21-2.32,0.53
				c-0.39,0.37-0.53,0.9-0.53,2.27v12.92H244.15z"/>
			<path class="st1" d="M285.32,52.11c-0.31,1.79-1.36,6.75-1.79,9.01h-22.77l-0.39-0.84c6.09-10.12,12.17-20.61,18.35-31.31h-8.63
				c-3.9,0-4.55,0.32-5.47,1.95c-0.44,0.69-1.09,2.42-1.66,4.43l-1.31-0.05c0.22-2.74,0.74-7.33,0.83-9.65h1.14
				c0.48,1.27,1.01,1.21,2.32,1.21h17.69l0.35,0.84c-6.09,10.28-12,20.51-18.04,31.16c1.36,0.11,4.2,0.16,7.18,0.16
				c5.74,0,7.05-0.26,8.28-1.9c0.92-1.11,1.88-3.16,2.67-5.38L285.32,52.11z"/>
			<path class="st1" d="M310.81,52.74c-0.26,1.37-1.45,6.8-1.88,8.38h-21.28v-1.48c4.07-0.37,4.38-0.84,4.38-5.17V33.65
				c0-4.69-0.48-4.96-3.77-5.32v-1.48h13.4c4.12,0,5.82-0.05,6.35-0.11c0.04,1.32,0.22,5.27,0.39,8.07l-1.31,0.26
				c-0.39-1.79-0.83-2.9-1.31-4.01c-0.7-1.74-1.71-2.11-4.34-2.11h-4.16c-1.36,0-1.45,0.16-1.45,1.69V42.3h4.86
				c3.28,0,3.5-0.79,4.03-4.38h1.36v10.86h-1.36c-0.57-3.8-0.92-4.32-4.07-4.32h-4.82v10.49c0,3.69,0.96,4.01,3.15,4.06h4.07
				c2.67,0,3.11-0.47,4.07-1.85c0.83-1.11,1.75-3.27,2.37-4.85L310.81,52.74z"/>
			<path class="st1" d="M342.48,46.73c-2.71,0.42-2.89,0.74-2.89,3.85v4.43c0,1.84,0.04,3.58,0.26,5.01
				c-2.71,0.74-6.26,1.9-9.94,1.9c-9.94,0-15.98-7.43-15.98-18.03c0-11.12,7.53-17.77,16.29-17.77c4.47,0,7.75,1.05,9.11,1.32
				c0.09,1.95,0.31,5.17,0.66,8.49l-1.31,0.32c-1.05-4.48-2.32-6.38-5.08-7.49c-1.01-0.42-2.8-0.69-4.07-0.69
				c-6.7,0-11.04,5.54-11.04,15.18c0,8.38,3.59,16.71,12.09,16.71c1.49,0,2.85-0.37,3.72-0.9c0.92-0.63,1.49-1.21,1.49-3.37v-4.32
				c0-3.85-0.35-4.27-4.55-4.64V45.2h11.25V46.73z"/>
			<path class="st0" d="M379.35,35.13c-0.39-1.69-0.92-3.43-1.4-4.38c-0.7-1.42-1.14-1.79-3.55-1.79h-4.38v25.67
				c0,4.11,0.35,4.69,4.51,5.01v1.48h-12.74v-1.48c4.07-0.32,4.42-0.84,4.42-5.01V28.96h-3.99c-2.41,0-3.11,0.32-3.85,1.9
				c-0.53,1.05-0.88,2.32-1.44,4.27h-1.31c0.26-3.22,0.53-6.54,0.66-9.49h1.01c0.66,1.27,1.14,1.21,2.37,1.21h17.34
				c1.23,0,1.58-0.21,2.23-1.21h1.05c0,2.48,0.18,6.27,0.39,9.33L379.35,35.13z"/>
			<path class="st0" d="M398.75,61.12v-1.48c2.85-0.42,3.2-0.95,2.58-2.95c-0.57-2.06-1.45-4.69-2.36-8.01h-9.46
				c-0.7,2.37-1.36,4.43-1.97,6.59c-0.96,3.43-0.35,3.85,3.24,4.38v1.48h-10.12v-1.48c2.76-0.42,3.46-0.79,4.99-5.54l9.07-27.68
				l1.4-0.32c2.76,9.01,5.78,18.98,8.54,28.1c1.4,4.59,1.8,5.01,4.91,5.43v1.48H398.75z M394.37,33.02c-1.4,4.53-2.89,9.33-4.2,13.5
				h8.19L394.37,33.02z"/>
			<path class="st0" d="M424.11,61.12v-1.48c2.71-0.37,2.98-0.9,2.19-2.64c-1.01-2.06-2.93-6.01-5.65-11.18
				c-2.06,3.85-3.98,7.49-5.43,10.6c-1.01,2.21-0.66,2.79,2.28,3.22v1.48h-10.2v-1.48c2.63-0.32,3.85-1.11,5.12-3.06
				c1.62-2.53,3.37-5.59,7.18-12.65c-2.28-4.43-4.25-8.17-5.69-10.97c-1.88-3.53-2.45-4.22-5.65-4.64v-1.48h10.9v1.48
				c-2.72,0.32-2.8,0.9-2.1,2.32c1.4,2.95,3.02,6.01,4.95,9.59c1.71-3.16,3.29-6.17,4.42-8.59c1.05-2.27,0.74-2.9-2.15-3.32v-1.48
				h9.99v1.48c-3.29,0.53-4.07,0.95-5.96,4.17c-1.45,2.48-2.32,4.01-5.34,9.49c2.37,4.48,4.6,8.86,6.66,12.71
				c2.1,4.01,2.98,4.59,6.13,4.96v1.48H424.11z"/>
			<path class="st0" d="M436.16,61.12v-1.48c3.59-0.47,3.94-0.68,3.94-5.17V33.55c0-4.53-0.35-4.74-3.94-5.22v-1.48h11.74v1.48
				c-3.63,0.47-3.99,0.69-3.99,5.22v20.93c0,4.53,0.35,4.69,3.99,5.17v1.48H436.16z"/>
		</g>
	</g>
	<g>
		<path class="st0" d="M104.09,67.2c8.38,3.29,35.75,5.41,65.37,5.81c33.15,0.42,56.14-0.53,84.75-1.67
			c44.08-1.75,134.44-1.21,172.45,4.01c-11.45-5.06-78.07-9.6-158.88-8.33C218.48,67.79,159.44,71.53,104.09,67.2z"/>
	</g>
</g>
</svg>
